<?xml version="1.0" encoding="UTF-8"?>
<svg width="35px" height="36px" viewBox="0 0 35 36" version="1.1" xmlns="http://www.w3.org/2000/svg" xmlns:xlink="http://www.w3.org/1999/xlink">
    <!-- Generator: Sketch 45.2 (43514) - http://www.bohemiancoding.com/sketch -->
    <title>Dribbble</title>
    <desc>Created with Sketch.</desc>
    <defs></defs>
    <g id="Icons" stroke="none" stroke-width="1" fill="none" fill-rule="evenodd">
        <g id="Icons-Copy" transform="translate(-87.000000, -307.000000)" fill="#FFFFFF">
            <g id="Dribbble" transform="translate(87.000000, 307.000000)">
                <path d="M31.6065556,17.2101606 C31.5579444,17.2015962 31.5073889,17.1938104 31.4548889,17.1848567 C31.2713333,17.1537135 31.0656111,17.121013 30.8377222,17.0867554 C30.7638333,17.075466 30.6977222,17.0657337 30.6191667,17.054055 C30.3146667,17.0104544 29.9860556,16.9664645 29.6224444,16.9236425 C29.6002778,16.9213068 29.5761667,16.9189711 29.554,16.9166353 C29.2152778,16.8777062 28.8505,16.8422808 28.4701667,16.8095803 C28.3776111,16.8014052 28.2862222,16.794398 28.1917222,16.7870014 C27.8008889,16.7562475 27.3956667,16.730165 26.9721667,16.7110897 C26.9371667,16.7095326 26.9048889,16.7071968 26.8698889,16.7056397 C26.4012778,16.6861751 25.9159444,16.6772214 25.4181667,16.678 C25.3442778,16.678 25.27,16.6799465 25.1957222,16.680725 C24.7617222,16.6842287 24.3211111,16.6982431 23.8735,16.7219899 C23.7848333,16.7270507 23.6981111,16.7305543 23.6090556,16.7360043 C23.0836667,16.7690941 22.5543889,16.8146411 22.0223889,16.8815991 C21.9158333,16.6211635 21.8221111,16.3677352 21.7101111,16.1041852 C21.3958889,15.3660897 21.056,14.6342229 20.7036667,13.9132562 C21.3021667,13.6676136 21.8543889,13.4153531 22.3817222,13.1529711 C22.4217778,13.1335065 22.4606667,13.114042 22.4999444,13.0941881 C26.2387222,11.2092417 28.2142778,9.06113459 28.8151111,8.3090246 C29.0908333,8.64809696 29.4031111,8.95875109 29.6473333,9.31962373 C30.1746667,10.1052127 30.6300556,10.9414096 30.9975556,11.8103068 C31.3724444,12.6967221 31.6578889,13.6208987 31.8515556,14.5618148 C32.0327778,15.4610767 32.1245556,16.3844747 32.1377778,17.3074834 C32.0024444,17.2810116 31.8239444,17.2483111 31.6065556,17.2101606 M31.8515556,20.4720289 C31.6578889,21.41567 31.3724444,22.3402359 30.9975556,23.2258726 C30.6300556,24.0947699 30.1746667,24.931356 29.6473333,25.716945 C29.1227222,26.4924124 28.5222778,27.221165 27.8588333,27.8849059 C27.2261111,28.5198394 26.5288333,29.0932648 25.7930556,29.6009001 C25.55,28.2457786 24.7205,24.1636744 22.9374444,19.2504342 C25.5702222,18.8280535 28.0093333,19.0258133 29.7332778,19.3096064 C29.7363889,19.3103849 29.7395,19.3107742 29.7422222,19.3111635 C30.4134444,19.4221114 30.9715,19.5455166 31.3934444,19.6506252 C31.4237778,19.658411 31.4525556,19.6654182 31.4813333,19.6728148 C31.6664444,19.719919 31.8317222,19.7646874 31.9530556,19.7997236 C31.9184444,20.0235658 31.8962778,20.2505224 31.8515556,20.4720289 M23.2018889,31.0295977 C22.3198889,31.4033169 21.3935556,31.6906136 20.4505,31.8844805 C19.488,32.0799045 18.4951667,32.1818987 17.5,32.1818987 C16.5048333,32.1818987 15.5123889,32.0799045 14.5467778,31.8844805 C13.6064444,31.6906136 12.6832222,31.4033169 11.7981111,31.0295977 C10.9301111,30.6617178 10.0943889,30.2058582 9.31,29.6779797 C9.01561111,29.4786628 8.73483333,29.2579349 8.45522222,29.0368177 C8.52872222,28.9005658 8.64577778,28.7004703 8.78227778,28.4789638 C8.80522222,28.4415919 8.82505556,28.4077236 8.84994444,28.3684052 C8.99577778,28.1375557 9.18127778,27.8650521 9.39361111,27.5707482 C9.43444444,27.5146903 9.47683333,27.4570753 9.52,27.3990709 C9.74983333,27.0895847 10.0142778,26.7547945 10.3195556,26.3993719 C10.3646667,26.3472069 10.4156111,26.2923169 10.4622778,26.2389841 C10.7971111,25.8582576 11.1653889,25.4615702 11.592,25.0512576 C11.592,25.0508683 11.5923889,25.0508683 11.5923889,25.0508683 C12.0092778,24.6495094 12.4868333,24.2380289 12.9974444,23.8269378 C13.0748333,23.7646512 13.1479444,23.7023647 13.2276667,23.6400781 C13.7316667,23.2461158 14.2885556,22.8548784 14.8847222,22.4710376 C14.9971111,22.3986295 15.1118333,22.3266107 15.2277222,22.2553705 C15.8464444,21.8726975 16.5098889,21.5005355 17.2289444,21.1474486 C17.3366667,21.0948944 17.4521667,21.0450651 17.5622222,20.9929001 C18.3361111,20.6277453 19.1523889,20.2777728 20.0448889,19.9667294 C20.0767778,19.9558292 20.1082778,19.9484327 20.1401667,19.9375326 C22.1021111,25.0423039 22.9938333,29.3739436 23.2827778,30.9906686 C23.2551667,31.0027366 23.2295,31.0183082 23.2018889,31.0295977 M7.74666667,25.5234674 C7.48883333,25.8578683 7.26444444,26.1619045 7.0805,26.4266223 C7.04666667,26.4745051 7.02488889,26.5072055 6.99377778,26.5527525 C6.81838889,26.8081274 6.66983333,27.0335268 6.57066667,27.1911896 C6.14794444,26.7131404 5.71122222,26.2444342 5.35266667,25.716945 C4.82533333,24.931356 4.37033333,24.0947699 4.00244444,23.2258726 C3.62794444,22.3402359 3.34094444,21.41567 3.14844444,20.4720289 C2.95361111,19.5081447 2.85172222,18.5146744 2.85172222,17.518479 C2.85172222,17.3608162 2.87038889,17.2043213 2.87544444,17.047437 C3.05938889,17.0486049 3.33005556,17.047437 3.66527778,17.0427656 L3.66605556,17.0427656 C6.02194444,17.0077294 11.8583889,16.718097 17.9048333,14.9078944 C18.3365,15.7538234 18.7339444,16.6129884 19.1127222,17.4698177 C18.9206111,17.5243184 18.7257778,17.5714226 18.5363889,17.6329305 C17.7243889,17.8957019 16.9637222,18.215699 16.2322222,18.5606107 C16.128,18.6100507 16.0210556,18.6548191 15.918,18.7054269 C15.2347222,19.0421635 14.5922778,19.4092648 13.9817222,19.7958307 C13.867,19.8686281 13.755,19.9402576 13.6426111,20.0142229 C13.0495556,20.4054602 12.4887778,20.8095441 11.9680556,21.2249175 C11.8848333,21.291097 11.8093889,21.3564978 11.7281111,21.4230666 C11.1976667,21.8582938 10.6944444,22.2978032 10.2425556,22.7334197 L10.2421667,22.7341983 C9.77977778,23.1799363 9.36988889,23.6151635 8.98994444,24.0367656 C8.93627778,24.0967164 8.88105556,24.15511 8.82894444,24.2142822 C8.47933333,24.6094124 8.1725,24.9811852 7.89755556,25.3303792 C7.84427778,25.3977265 7.79683333,25.4584559 7.74666667,25.5234674 M4.00244444,11.8103068 C4.37033333,10.9414096 4.82533333,10.1052127 5.35266667,9.31962373 C5.88,8.54143126 6.47811111,7.81228944 7.14388889,7.14854848 C7.80694444,6.48480753 8.53494444,5.88335311 9.31,5.35819971 C9.94233333,4.93114761 10.6182222,4.56638205 11.3108333,4.24210275 C11.9832222,5.16783647 14.3877222,8.54454559 16.6705,12.6060174 C16.2081111,12.728644 15.7492222,12.8430955 15.2957778,12.9501505 L15.2957778,12.9501505 C15.2946111,12.9501505 15.2934444,12.9505398 15.2922778,12.9509291 C11.6297222,13.8143763 8.31444444,14.1775847 6.03088889,14.3290188 C6.02894444,14.3294081 6.02661111,14.3294081 6.02466667,14.3294081 C5.11661111,14.3893589 4.37305556,14.4158307 3.83522222,14.4271201 C3.829,14.4271201 3.82277778,14.4275094 3.81655556,14.4275094 C3.55327778,14.4329595 3.33783333,14.4349059 3.18111111,14.4349059 C3.37283333,13.5379797 3.64505556,12.6562359 4.00244444,11.8103068 M14.5467778,3.15169899 C15.5123889,2.95393922 16.5048333,2.85467004 17.5,2.85467004 C18.4951667,2.85467004 19.488,2.95393922 20.4505,3.15169899 C21.3935556,3.34595514 22.3167778,3.63169465 23.2018889,4.00658177 C24.0698889,4.37485094 24.9083333,4.83032127 25.69,5.35819971 C26.2146111,5.71401158 26.6816667,6.14923878 27.1584444,6.57045152 C26.6031111,7.27896093 24.8091667,9.29821274 21.2216667,10.9807279 C21.2119444,10.9853994 21.2018333,10.9900709 21.1917222,10.9947424 C20.6815,11.2329884 20.1358889,11.4650058 19.5513889,11.6849551 C17.3160556,7.57793632 14.8952222,4.21640955 14.1777222,3.24707525 C14.3013889,3.21826773 14.4223333,3.17778148 14.5467778,3.15169899 M33.6245,10.6981027 C33.1846667,9.66064255 32.6417778,8.65860781 32.0113889,7.72041679 C31.3837222,6.79507236 30.6638889,5.92306078 29.8752222,5.13046454 C29.0834444,4.33942547 28.2123333,3.62040521 27.2879444,2.99208973 C26.3503333,2.35949204 25.3493333,1.81720984 24.3133333,1.37731114 C23.254,0.930015919 22.1499444,0.587439942 21.0245,0.355422576 C19.8710556,0.11912301 18.6865,0 17.5,0 C16.3138889,0 15.1289444,0.11912301 13.9755,0.355422576 C12.8500556,0.587439942 11.7444444,0.930015919 10.6870556,1.37731114 C9.65066667,1.81720984 8.64966667,2.35949204 7.71244444,2.99208973 C6.78766667,3.62040521 5.91694444,4.33942547 5.12516667,5.13046454 C4.33611111,5.92306078 3.61666667,6.79507236 2.989,7.72041679 C2.35822222,8.65860781 1.81533333,9.66064255 1.3755,10.6981027 C0.929055556,11.7565847 0.586833333,12.8633386 0.356222222,13.9899465 C0.119,15.1449725 0,16.3307525 0,17.518479 C0,18.7054269 0.119,19.8915962 0.356222222,21.0466223 C0.586833333,22.1732301 0.929055556,23.2799841 1.3755,24.335741 C1.81533333,25.3759262 2.35822222,26.3775716 2.989,27.316152 C3.61666667,28.2414964 4.33611111,29.113508 5.12516667,29.9061042 C5.91694444,30.6955861 6.78766667,31.4161635 7.71244444,32.041754 C8.64966667,32.6759088 9.65066667,33.2193589 10.6870556,33.6592576 C11.7444444,34.1065528 12.8500556,34.4491288 13.9755,34.679589 C15.1289444,34.9174457 16.3138889,35.0361795 17.5,35.0361795 C18.6865,35.0361795 19.8710556,34.9174457 21.0245,34.679589 C22.1499444,34.4491288 23.254,34.1065528 24.3133333,33.6592576 C25.3493333,33.2193589 26.3503333,32.6759088 27.2879444,32.041754 C28.2123333,31.4161635 29.0834444,30.6955861 29.8752222,29.9061042 C30.6638889,29.113508 31.3837222,28.2414964 32.0113889,27.316152 C32.6417778,26.3775716 33.1846667,25.3759262 33.6245,24.335741 C34.0697778,23.2799841 34.4131667,22.1732301 34.6437778,21.0466223 C34.8813889,19.8915962 35,18.7054269 35,17.518479 C35,16.3307525 34.8813889,15.1449725 34.6437778,13.9899465 C34.4131667,12.8633386 34.0697778,11.7565847 33.6245,10.6981027" id="Fill-30"></path>
            </g>
        </g>
    </g>
</svg>