<?xml version="1.0" encoding="UTF-8"?>
<svg width="37px" height="23px" viewBox="0 0 37 23" version="1.1" xmlns="http://www.w3.org/2000/svg" xmlns:xlink="http://www.w3.org/1999/xlink">
    <!-- Generator: Sketch 45.2 (43514) - http://www.bohemiancoding.com/sketch -->
    <title>Google Plus</title>
    <desc>Created with Sketch.</desc>
    <defs></defs>
    <g id="Icons" stroke="none" stroke-width="1" fill="none" fill-rule="evenodd">
        <g id="Icons-Copy" transform="translate(-856.000000, -90.000000)" fill="#FFFFFF">
            <g id="Google-Plus" transform="translate(856.000000, 90.000000)">
                <path d="M0.0303611491,10.866471 C0.128750038,4.97377492 5.54052782,-0.18705431 11.4271389,0.00953758583 C14.2473611,-0.121264151 16.8988056,1.10733788 19.0590834,2.83306436 C18.1374167,3.88142471 17.1826945,4.89202384 16.16225,5.83683281 C13.5656389,4.0398661 9.87197226,3.52678071 7.27536115,5.60209041 C3.5599167,8.17413527 3.39113893,14.247073 6.96425004,17.0157098 C10.4393611,20.1724696 17.0080834,18.6047952 17.96825,13.7717489 C15.79125,13.7390484 13.6091945,13.7717489 11.4325834,13.7008979 C11.4271389,12.4010557 11.4216945,11.1012134 11.4271389,9.80137116 C15.0659723,9.79047102 18.7048056,9.78502094 22.3490834,9.81227131 C22.56725,12.8705405 22.1635834,16.1254016 20.2868056,18.6542351 C17.4444167,22.6573133 11.7378611,23.8259645 7.28625004,22.1111382 C2.81830559,20.407212 -0.346083295,15.6831671 0.0303611491,10.866471" id="Fill-186"></path>
                <path d="M30.2896111,7 L33.5356667,7 C33.5411111,8.08690014 33.5465556,9.17886107 33.5574444,10.2657612 C34.6432222,10.2766614 35.7340556,10.2766614 36.8198333,10.2875615 L36.8198333,13.5369725 C35.7340556,13.5478726 34.6486667,13.5533227 33.5574444,13.5642229 C33.5465556,14.6565731 33.5411111,15.7434732 33.5356667,16.8299841 L30.2841667,16.8299841 C30.2732778,15.7434732 30.2732778,14.6565731 30.2623889,13.5696729 C29.1766111,13.5587728 28.0853889,13.5478726 27,13.5369725 L27,10.2875615 C28.0853889,10.2766614 29.1711667,10.2712113 30.2623889,10.2657612 C30.2678333,9.173411 30.2787222,8.08690014 30.2896111,7" id="Fill-187"></path>
            </g>
        </g>
    </g>
</svg>