<?xml version="1.0" encoding="UTF-8"?>
<svg width="28px" height="28px" viewBox="0 0 28 28" version="1.1" xmlns="http://www.w3.org/2000/svg" xmlns:xlink="http://www.w3.org/1999/xlink">
    <!-- Generator: Sketch 45.2 (43514) - http://www.bohemiancoding.com/sketch -->
    <title>Instagram</title>
    <desc>Created with Sketch.</desc>
    <defs>
        <polygon id="path-1" points="0 27.9878333 27.9911667 27.9878333 27.9911667 0 0 0"></polygon>
    </defs>
    <g id="Icons" stroke="none" stroke-width="1" fill="none" fill-rule="evenodd">
        <g id="Icons-Copy" transform="translate(-1082.000000, -9.000000)">
            <g id="Instagram" transform="translate(1082.000000, 9.000000)">
                <mask id="mask-2" fill="white">
                    <use xlink:href="#path-1"></use>
                </mask>
                <g id="Clip-2"></g>
                <path d="M13.9956111,0 C10.1946111,0 9.718,0.0161111111 8.22522222,0.0842222222 C6.73555556,0.152166667 5.71816667,0.388777778 4.82794444,0.734777778 C3.90761111,1.09238889 3.12711111,1.57094444 2.349,2.349 C1.57094444,3.12711111 1.09238889,3.90761111 0.734777778,4.82794444 C0.388777778,5.71816667 0.152166667,6.73555556 0.0842222222,8.22522222 C0.0161111111,9.718 0,10.1946111 0,13.9956111 C0,17.7965556 0.0161111111,18.2731667 0.0842222222,19.7659444 C0.152166667,21.2556111 0.388777778,22.273 0.734777778,23.1632222 C1.09238889,24.0835556 1.57094444,24.8640556 2.349,25.6421667 C3.12711111,26.4202222 3.90761111,26.8987778 4.82794444,27.2564444 C5.71816667,27.6023889 6.73555556,27.839 8.22522222,27.9069444 C9.718,27.9750556 10.1946111,27.9911667 13.9956111,27.9911667 C17.7965556,27.9911667 18.2731667,27.9750556 19.7659444,27.9069444 C21.2556111,27.839 22.273,27.6023889 23.1632222,27.2564444 C24.0835556,26.8987778 24.8640556,26.4202222 25.6421667,25.6421667 C26.4202222,24.8640556 26.8987778,24.0835556 27.2564444,23.1632222 C27.6023889,22.273 27.839,21.2556111 27.9069444,19.7659444 C27.9750556,18.2731667 27.9911667,17.7965556 27.9911667,13.9956111 C27.9911667,10.1946111 27.9750556,9.718 27.9069444,8.22522222 C27.839,6.73555556 27.6023889,5.71816667 27.2564444,4.82794444 C26.8987778,3.90761111 26.4202222,3.12711111 25.6421667,2.349 C24.8640556,1.57094444 24.0835556,1.09238889 23.1632222,0.734777778 C22.273,0.388777778 21.2556111,0.152166667 19.7659444,0.0842222222 C18.2731667,0.0161111111 17.7965556,0 13.9956111,0 Z M13.9956111,2.52172222 C17.7325556,2.52172222 18.1752222,2.536 19.651,2.60333333 C21.0155556,2.66555556 21.7566111,2.89355556 22.2497778,3.08522222 C22.9030556,3.33911111 23.3692778,3.64238889 23.859,4.13216667 C24.3487778,4.62188889 24.6520556,5.08811111 24.9059444,5.74138889 C25.0976111,6.23455556 25.3256111,6.97561111 25.3878333,8.34016667 C25.4551667,9.81594444 25.4694444,10.2586111 25.4694444,13.9956111 C25.4694444,17.7325556 25.4551667,18.1752222 25.3878333,19.651 C25.3256111,21.0155556 25.0976111,21.7566111 24.9059444,22.2497778 C24.6520556,22.9030556 24.3487778,23.3692778 23.859,23.859 C23.3692778,24.3487778 22.9030556,24.6520556 22.2497778,24.9059444 C21.7566111,25.0976111 21.0155556,25.3256111 19.651,25.3878333 C18.1754444,25.4551667 17.7328333,25.4694444 13.9956111,25.4694444 C10.2583333,25.4694444 9.81577778,25.4551667 8.34016667,25.3878333 C6.97561111,25.3256111 6.23455556,25.0976111 5.74138889,24.9059444 C5.08811111,24.6520556 4.62188889,24.3487778 4.13216667,23.859 C3.64244444,23.3692778 3.33911111,22.9030556 3.08522222,22.2497778 C2.89355556,21.7566111 2.66555556,21.0155556 2.60333333,19.651 C2.536,18.1752222 2.52172222,17.7325556 2.52172222,13.9956111 C2.52172222,10.2586111 2.536,9.81594444 2.60333333,8.34016667 C2.66555556,6.97561111 2.89355556,6.23455556 3.08522222,5.74138889 C3.33911111,5.08811111 3.64238889,4.62188889 4.13216667,4.13216667 C4.62188889,3.64238889 5.08811111,3.33911111 5.74138889,3.08522222 C6.23455556,2.89355556 6.97561111,2.66555556 8.34016667,2.60333333 C9.81594444,2.536 10.2586111,2.52172222 13.9956111,2.52172222 L13.9956111,2.52172222 Z" id="Fill-1" fill="#FFFFFF" mask="url(#mask-2)"></path>
                <path d="M14.0000271,18.5438625 C11.4904823,18.5438625 9.4561375,16.5095177 9.4561375,14.0000271 C9.4561375,11.4904823 11.4904823,9.4561375 14.0000271,9.4561375 C16.5095177,9.4561375 18.5438625,11.4904823 18.5438625,14.0000271 C18.5438625,16.5095177 16.5095177,18.5438625 14.0000271,18.5438625 Z M14.0000271,7 C10.1339819,7 7,10.1339819 7,14.0000271 C7,17.8660181 10.1339819,21 14.0000271,21 C17.8660181,21 21,17.8660181 21,14.0000271 C21,10.1339819 17.8660181,7 14.0000271,7 L14.0000271,7 Z" id="Fill-4" fill="#FFFFFF" mask="url(#mask-2)"></path>
                <path d="M22.787,6.34524703 C22.787,7.17368189 22.11541,7.84522222 21.2869752,7.84522222 C20.45859,7.84522222 19.787,7.17368189 19.787,6.34524703 C19.787,5.51681217 20.45859,4.84522222 21.2869752,4.84522222 C22.11541,4.84522222 22.787,5.51681217 22.787,6.34524703" id="Fill-5" fill="#FFFFFF" mask="url(#mask-2)"></path>
            </g>
        </g>
    </g>
</svg>