<?xml version="1.0" encoding="UTF-8"?>
<svg width="32px" height="30px" viewBox="0 0 32 30" version="1.1" xmlns="http://www.w3.org/2000/svg" xmlns:xlink="http://www.w3.org/1999/xlink">
    <!-- Generator: Sketch 45.2 (43514) - http://www.bohemiancoding.com/sketch -->
    <title>Linkedin</title>
    <desc>Created with Sketch.</desc>
    <defs></defs>
    <g id="Icons" stroke="none" stroke-width="1" fill="none" fill-rule="evenodd">
        <g id="Icons-Copy" transform="translate(-748.000000, -86.000000)" fill="#FFFFFF">
            <g id="Linkedin" transform="translate(748.000000, 86.000000)">
                <path d="M3.88024691,7.02956287 C6.02207407,7.02956287 7.75841975,5.45774368 7.75841975,3.51667064 C7.75841975,1.57388014 6.02207407,0 3.88024691,0 C1.73634568,0 0,1.57388014 0,3.51667064 C0,5.45774368 1.73634568,7.02956287 3.88024691,7.02956287" id="Fill-182"></path>
                <polygon id="Fill-183" points="0.888888889 29.6273853 7.84740741 29.6273853 7.84740741 9.70588235 0.888888889 9.70588235"></polygon>
                <path d="M17.6137778,18.5474432 C17.6137778,16.2628782 18.7026667,14.0288065 21.306321,14.0288065 C23.9099753,14.0288065 24.5501728,16.2628782 24.5501728,18.492828 L24.5501728,29.3729356 L31.4775802,29.3729356 L31.4775802,18.0480059 C31.4775802,10.1799791 26.7922469,8.82352941 23.9099753,8.82352941 C21.0301235,8.82352941 19.4417284,9.79045927 17.6137778,12.1334179 L17.6137778,9.45143271 L10.6666667,9.45143271 L10.6666667,29.3729356 L17.6137778,29.3729356 L17.6137778,18.5474432 Z" id="Fill-184"></path>
            </g>
        </g>
    </g>
</svg>