<?xml version="1.0" encoding="UTF-8"?>
<svg width="34px" height="28px" viewBox="0 0 34 28" version="1.1" xmlns="http://www.w3.org/2000/svg" xmlns:xlink="http://www.w3.org/1999/xlink">
    <!-- Generator: Sketch 45.2 (43514) - http://www.bohemiancoding.com/sketch -->
    <title>Twitter</title>
    <desc>Created with Sketch.</desc>
    <defs></defs>
    <g id="Icons" stroke="none" stroke-width="1" fill="none" fill-rule="evenodd">
        <g id="Icons-Copy" transform="translate(-87.000000, -87.000000)" fill="#FFFFFF">
            <g id="Twitter" transform="translate(87.000000, 87.000000)">
                <path d="M33.0321333,0.613133333 C32.0442444,1.24591111 29.7760667,2.16542222 28.6574667,2.16542222 L28.6574667,2.16731111 C27.3802,0.833 25.5819778,0 23.5876889,0 C19.7143333,0 16.5734889,3.14084444 16.5734889,7.01268889 C16.5734889,7.55064444 16.6358222,8.07537778 16.7510444,8.57857778 L16.7499111,8.57857778 C11.4957778,8.44068889 5.7494,5.8072 2.29008889,1.29993333 C0.1632,4.98137778 2.00373333,9.07573333 4.41735556,10.5675778 C3.59115556,10.6299111 2.07022222,10.4723778 1.35433333,9.77386667 C1.30635556,12.2173333 2.48124444,15.4548889 6.76524444,16.6294 C5.94017778,17.0732889 4.47968889,16.9459778 3.84464444,16.8515333 C4.06753333,18.9142 6.95602222,21.6107778 10.1146222,21.6107778 C8.98884444,22.9129778 4.7532,25.2748444 0,24.5234444 C3.22811111,26.4875111 6.9904,27.625 10.9725556,27.625 C22.2888889,27.625 31.0771333,18.4536889 30.6041556,7.13962222 C30.6022667,7.12715556 30.6022667,7.11468889 30.6011333,7.10108889 C30.6022667,7.072 30.6041556,7.04291111 30.6041556,7.01268889 C30.6041556,6.97755556 30.6011333,6.94431111 30.6,6.91031111 C31.6302,6.20575556 33.0124889,4.95946667 34,3.31915556 C33.4272889,3.6346 31.7091556,4.26624444 30.1104,4.42302222 C31.1364444,3.8692 32.6566222,2.05548889 33.0321333,0.613133333" id="Fill-1"></path>
            </g>
        </g>
    </g>
</svg>