<?xml version="1.0" encoding="UTF-8"?>
<svg width="32px" height="24px" viewBox="0 0 32 24" version="1.1" xmlns="http://www.w3.org/2000/svg" xmlns:xlink="http://www.w3.org/1999/xlink">
    <!-- Generator: Sketch 45.2 (43514) - http://www.bohemiancoding.com/sketch -->
    <title>youtube</title>
    <desc>Created with Sketch.</desc>
    <defs></defs>
    <g id="Page-1" stroke="none" stroke-width="1" fill="none" fill-rule="evenodd">
        <g id="Group" transform="translate(-1.000000, -56.000000)" fill="#FFFFFF">
            <path d="M13.6964,72.1508 L13.6954,63.1598 L22.3414,67.6708 L13.6964,72.1508 Z M32.6804,61.6018 C32.6804,61.6018 32.3674,59.3968 31.4084,58.4258 C30.1914,57.1508 28.8274,57.1448 28.2024,57.0708 C23.7244,56.7468 17.0074,56.7468 17.0074,56.7468 L16.9934,56.7468 C16.9934,56.7468 10.2764,56.7468 5.7984,57.0708 C5.1724,57.1448 3.8094,57.1508 2.5914,58.4258 C1.6324,59.3968 1.3204,61.6018 1.3204,61.6018 C1.3204,61.6018 1.0004,64.1918 1.0004,66.7808 L1.0004,69.2088 C1.0004,71.7988 1.3204,74.3878 1.3204,74.3878 C1.3204,74.3878 1.6324,76.5928 2.5914,77.5638 C3.8094,78.8388 5.4084,78.7988 6.1204,78.9318 C8.6804,79.1778 17.0004,79.2538 17.0004,79.2538 C17.0004,79.2538 23.7244,79.2438 28.2024,78.9198 C28.8274,78.8448 30.1914,78.8388 31.4084,77.5638 C32.3674,76.5928 32.6804,74.3878 32.6804,74.3878 C32.6804,74.3878 33.0004,71.7988 33.0004,69.2088 L33.0004,66.7808 C33.0004,64.1918 32.6804,61.6018 32.6804,61.6018 L32.6804,61.6018 Z" id="youtube"></path>
        </g>
    </g>
</svg>